<?xml version="1.0" encoding="UTF-8"?><svg id="a" xmlns="http://www.w3.org/2000/svg" viewBox="0 0 500 500"><defs><style>.b{fill:#6367ad;}</style></defs><path class="b" d="M340.47,180.97c-7.84,0-15.54,.58-23.07,1.67,1.09-7.53,1.67-15.24,1.67-23.07C319.06,71.45,247.64,.03,159.53,.03S0,71.45,0,159.56s71.42,159.53,159.53,159.53c7.84,0,15.54-.58,23.07-1.67-1.09,7.53-1.67,15.24-1.67,23.07,0,88.11,71.42,159.53,159.53,159.53s159.53-71.42,159.53-159.53-71.42-159.53-159.53-159.53ZM63.81,159.56c0-52.86,42.85-95.72,95.72-95.72s95.72,42.85,95.72,95.72-42.85,95.72-95.72,95.72-95.72-42.85-95.72-95.72ZM340.47,436.22c-52.86,0-95.72-42.85-95.72-95.72s42.85-95.72,95.72-95.72,95.72,42.85,95.72,95.72-42.85,95.72-95.72,95.72Z"/></svg>