<?xml version="1.0" encoding="utf-8"?>
<!-- Generator: Adobe Illustrator 25.1.0, SVG Export Plug-In . SVG Version: 6.00 Build 0)  -->
<svg version="1.1"
	 id="svg433" sodipodi:docname="s4.svg" xmlns:inkscape="http://www.inkscape.org/namespaces/inkscape" xmlns:sodipodi="http://sodipodi.sourceforge.net/DTD/sodipodi-0.dtd" xmlns:svg="http://www.w3.org/2000/svg"
	 xmlns="http://www.w3.org/2000/svg" xmlns:xlink="http://www.w3.org/1999/xlink" x="0px" y="0px" viewBox="0 0 500 500"
	 style="enable-background:new 0 0 500 500;" xml:space="preserve">
<style type="text/css">
	.st0{fill:#E30613;}
</style>
<g id="Layer_5">
	<g id="g83">
		<g id="g63">
			<path id="rect59" class="st0" d="M76,0H174v250H76V0z"/>
			<path id="rect61" class="st0" d="M0,174V76h250V174H0z"/>
		</g>
		<g id="g69">
			<path id="rect65" class="st0" d="M326,250H424v250H326L326,250z"/>
			<path id="rect67" class="st0" d="M250,424V326h250V424L250,424z"/>
		</g>
		<g id="g75">
			<path id="rect71" class="st0" d="M254,69.2L323.2,0L500,176.8L430.8,246L254,69.2z"/>
			<path id="rect73" class="st0" d="M323.2,246L254,176.8L430.8,0L500,69.2L323.2,246z"/>
		</g>
		<g id="g81">
			<path id="rect77" class="st0" d="M-0.1,323.4l69.2-69.2l176.8,176.8l-69.2,69.2L-0.1,323.4z"/>
			<path id="rect79" class="st0" d="M69.1,500.1l-69.2-69.2l176.8-176.8l69.2,69.2L69.1,500.1z"/>
		</g>
	</g>
</g>
</svg>
