<?xml version="1.0" encoding="utf-8"?>
<!-- Generator: Adobe Illustrator 25.1.0, SVG Export Plug-In . SVG Version: 6.00 Build 0)  -->
<svg version="1.1"
	 id="svg433" sodipodi:docname="s5.svg" xmlns:inkscape="http://www.inkscape.org/namespaces/inkscape" xmlns:sodipodi="http://sodipodi.sourceforge.net/DTD/sodipodi-0.dtd" xmlns:svg="http://www.w3.org/2000/svg"
	 xmlns="http://www.w3.org/2000/svg" xmlns:xlink="http://www.w3.org/1999/xlink" x="0px" y="0px" viewBox="0 0 500 500"
	 style="enable-background:new 0 0 500 500;" xml:space="preserve">
<style type="text/css">
	.st0{fill:#312783;}
</style>
<g id="Layer_6">
	<g id="g96">
		<path id="path94" class="st0" d="M472.4,202.3l-223.4-60.6L122.3,335.5L254.7,500h54.3l174.8-66.5L472.4,202.3z M277.2,480
			L159.3,333.7l102.8-157.3l181.4,49.2l9.3,187.7L277.2,480z"/>
	</g>
	<g id="g100">
		<path id="path98" class="st0" d="M303.4,25.3L30.7,244.9L127.8,500h42.8L78.4,257.8L305.8,74.7L500,201.6v-47.8L303.4,25.3z
			 M478.2,500H500v-80.5L478.2,500z"/>
	</g>
	<g id="g104">
		<path id="path102" class="st0" d="M0,386.3V466l27.3,34h64.2L0,386.3z M412.9,0H221.7L500,75.4V23.6L412.9,0z M0,198.3v91.4
			L189.3,0h-59.7L0,198.3z"/>
	</g>
	<g id="g108">
		<path id="path106" class="st0" d="M312.9,202.6l-113,90.9L251.5,429l144.8-7.2l37.9-140L312.9,202.6z M380.8,402.6L265,408.3
			L223.8,300l90.3-72.7l97.1,63.4L380.8,402.6z"/>
	</g>
	<g id="g112">
		<path id="path110" class="st0" d="M369.9,284.8l-74.2-20.1l-42,64.3l48.2,59.9l71.8-27.3L369.9,284.8z M305.1,376.9L266,328.4
			l34.1-52.2l60.1,16.3l3.1,62.2L305.1,376.9z"/>
	</g>
</g>
</svg>
