<?xml version="1.0" encoding="utf-8"?>
<!-- Generator: Adobe Illustrator 25.1.0, SVG Export Plug-In . SVG Version: 6.00 Build 0)  -->
<svg version="1.1"
	 id="svg221" sodipodi:docname="s7.svg" xmlns:inkscape="http://www.inkscape.org/namespaces/inkscape" xmlns:sodipodi="http://sodipodi.sourceforge.net/DTD/sodipodi-0.dtd" xmlns:svg="http://www.w3.org/2000/svg"
	 xmlns="http://www.w3.org/2000/svg" xmlns:xlink="http://www.w3.org/1999/xlink" x="0px" y="0px" viewBox="0 0 500 500"
	 style="enable-background:new 0 0 500 500;" xml:space="preserve">
<g id="Layer_8">
	<g id="g218">
		<path id="circle120" d="M45.5,22.7c0,12.5-10.2,22.7-22.7,22.7l0,0c-12.5,0-22.7-10.2-22.7-22.7c0,0,0,0,0,0
			C0.1,10.2,10.3,0,22.8,0c0,0,0,0,0,0C35.3,0,45.5,10.2,45.5,22.7C45.5,22.7,45.5,22.7,45.5,22.7z"/>
		<path id="circle122" d="M121.2,22.7c0,12.5-10.2,22.7-22.7,22.7l0,0c-12.5,0-22.7-10.2-22.7-22.7v0C75.9,10.2,86,0,98.6,0
			c0,0,0,0,0,0C111.1,0,121.2,10.2,121.2,22.7L121.2,22.7z"/>
		<path id="circle124" d="M272.8,22.7c0,12.5-10.2,22.7-22.7,22.7l0,0c-12.5,0-22.7-10.2-22.7-22.7v0c0-12.5,10.2-22.7,22.7-22.7
			c0,0,0,0,0,0C262.6,0,272.8,10.2,272.8,22.7z"/>
		<path id="circle126" d="M348.6,22.7c0,12.5-10.2,22.7-22.7,22.7l0,0c-12.5,0-22.7-10.2-22.7-22.7v0c0-12.5,10.2-22.7,22.7-22.7
			c0,0,0,0,0,0C338.4,0,348.6,10.2,348.6,22.7L348.6,22.7z"/>
		<path id="circle128" d="M424.3,22.7c0,12.5-10.2,22.7-22.7,22.7l0,0c-12.5,0-22.7-10.2-22.7-22.7v0C379,10.2,389.1,0,401.6,0
			c0,0,0,0,0,0C414.2,0,424.3,10.2,424.3,22.7L424.3,22.7z"/>
		<path id="circle130" d="M197,22.7c0,12.5-10.2,22.7-22.7,22.7l0,0c-12.5,0-22.7-10.2-22.7-22.7v0c0-12.5,10.2-22.7,22.7-22.7
			c0,0,0,0,0,0C186.9,0,197,10.2,197,22.7L197,22.7z"/>
		<path id="circle132" d="M500.1,22.7c0,12.5-10.2,22.7-22.7,22.7l0,0c-12.5,0-22.7-10.2-22.7-22.7v0c0-12.5,10.2-22.7,22.7-22.7
			c0,0,0,0,0,0C490,0,500.1,10.2,500.1,22.7L500.1,22.7z"/>
		<path id="circle134" d="M45.3,477.3c0,12.5-10.2,22.7-22.7,22.7h0C10,500-0.1,489.8-0.1,477.3c0,0,0,0,0,0
			c0-12.5,10.2-22.7,22.7-22.7l0,0C35.1,454.6,45.3,464.8,45.3,477.3L45.3,477.3z"/>
		<path id="circle136" d="M45.3,98.5c0,12.5-10.2,22.7-22.7,22.7h0C10,121.1-0.1,111-0.1,98.5c0,0,0,0,0,0
			c0-12.5,10.2-22.7,22.7-22.7l0,0C35.1,75.8,45.3,85.9,45.3,98.5L45.3,98.5z"/>
		<path id="circle138" d="M45.3,325.8c0,12.5-10.2,22.7-22.7,22.7h0c-12.5,0-22.7-10.2-22.7-22.7c0,0,0,0,0,0
			c0-12.5,10.2-22.7,22.7-22.7l0,0C35.1,303.1,45.3,313.2,45.3,325.8L45.3,325.8z"/>
		<path id="circle140" d="M45.3,250c0,12.5-10.2,22.7-22.7,22.7h0C10,272.7-0.1,262.5-0.1,250c0,0,0,0,0,0
			c0-12.5,10.2-22.7,22.7-22.7l0,0C35.1,227.3,45.3,237.5,45.3,250L45.3,250z"/>
		<path id="circle142" d="M45.3,174.2c0,12.5-10.2,22.7-22.7,22.7h0c-12.5,0-22.7-10.2-22.7-22.7c0,0,0,0,0,0
			c0-12.5,10.2-22.7,22.7-22.7l0,0C35.1,151.5,45.3,161.7,45.3,174.2L45.3,174.2z"/>
		<path id="circle144" d="M45.3,401.5c0,12.5-10.2,22.7-22.7,22.7h0c-12.5,0-22.7-10.2-22.7-22.7c0,0,0,0,0,0
			c0-12.5,10.2-22.7,22.7-22.7l0,0C35.1,378.9,45.3,389,45.3,401.5L45.3,401.5z"/>
		<path id="circle146" d="M121.2,477.3c0,12.5-10.2,22.7-22.7,22.7c0,0,0,0,0,0c-12.5,0-22.7-10.2-22.7-22.7l0,0
			c0-12.5,10.2-22.7,22.7-22.7l0,0C111.1,454.6,121.2,464.8,121.2,477.3L121.2,477.3z"/>
		<path id="circle148" d="M121.2,98.5c0,12.5-10.2,22.7-22.7,22.7c0,0,0,0,0,0c-12.5,0-22.7-10.2-22.7-22.7c0,0,0,0,0,0
			c0-12.5,10.2-22.7,22.7-22.7l0,0C111.1,75.8,121.2,85.9,121.2,98.5L121.2,98.5z"/>
		<path id="circle150" d="M121.2,325.8c0,12.5-10.2,22.7-22.7,22.7c0,0,0,0,0,0c-12.5,0-22.7-10.2-22.7-22.7l0,0
			c0-12.5,10.2-22.7,22.7-22.7l0,0C111.1,303.1,121.2,313.2,121.2,325.8L121.2,325.8z"/>
		<path id="circle152" d="M121.2,250c0,12.5-10.2,22.7-22.7,22.7c0,0,0,0,0,0c-12.5,0-22.7-10.2-22.7-22.7l0,0
			c0-12.5,10.2-22.7,22.7-22.7l0,0C111.1,227.3,121.2,237.5,121.2,250L121.2,250z"/>
		<path id="circle154" d="M121.2,174.2c0,12.5-10.2,22.7-22.7,22.7c0,0,0,0,0,0c-12.5,0-22.7-10.2-22.7-22.7l0,0
			c0-12.5,10.2-22.7,22.7-22.7l0,0C111.1,151.5,121.2,161.7,121.2,174.2L121.2,174.2z"/>
		<path id="circle156" d="M121.2,401.5c0,12.5-10.2,22.7-22.7,22.7c0,0,0,0,0,0c-12.5,0-22.7-10.2-22.7-22.7l0,0
			c0-12.5,10.2-22.7,22.7-22.7l0,0C111.1,378.9,121.2,389,121.2,401.5L121.2,401.5z"/>
		<path id="circle158" d="M197,477.3c0,12.5-10.2,22.7-22.7,22.7l0,0c-12.5,0-22.7-10.2-22.7-22.7l0,0c0-12.5,10.2-22.7,22.7-22.7
			l0,0C186.9,454.6,197,464.8,197,477.3L197,477.3z"/>
		<path id="circle160" d="M197,98.5c0,12.5-10.2,22.7-22.7,22.7l0,0c-12.5,0-22.7-10.2-22.7-22.7c0,0,0,0,0,0
			c0-12.5,10.2-22.7,22.7-22.7l0,0C186.9,75.8,197,85.9,197,98.5L197,98.5z"/>
		<path id="circle162" d="M197,325.8c0,12.5-10.2,22.7-22.7,22.7l0,0c-12.5,0-22.7-10.2-22.7-22.7l0,0c0-12.5,10.2-22.7,22.7-22.7
			l0,0C186.9,303.1,197,313.2,197,325.8L197,325.8z"/>
		<path id="circle164" d="M197,250c0,12.5-10.2,22.7-22.7,22.7l0,0c-12.5,0-22.7-10.2-22.7-22.7l0,0c0-12.5,10.2-22.7,22.7-22.7l0,0
			C186.9,227.3,197,237.5,197,250L197,250z"/>
		<path id="circle166" d="M197,174.2c0,12.5-10.2,22.7-22.7,22.7l0,0c-12.5,0-22.7-10.2-22.7-22.7l0,0c0-12.5,10.2-22.7,22.7-22.7
			l0,0C186.9,151.5,197,161.7,197,174.2L197,174.2z"/>
		<path id="circle168" d="M197,401.5c0,12.5-10.2,22.7-22.7,22.7l0,0c-12.5,0-22.7-10.2-22.7-22.7l0,0c0-12.5,10.2-22.7,22.7-22.7
			l0,0C186.9,378.9,197,389,197,401.5L197,401.5z"/>
		<path id="circle170" d="M272.8,477.3c0,12.5-10.2,22.7-22.7,22.7c-12.5,0-22.7-10.2-22.7-22.7l0,0c0-12.5,10.2-22.7,22.7-22.7l0,0
			C262.6,454.6,272.8,464.8,272.8,477.3z"/>
		<path id="circle172" d="M272.8,98.5c0,12.5-10.2,22.7-22.7,22.7c-12.5,0-22.7-10.2-22.7-22.7c0,0,0,0,0,0
			c0-12.5,10.2-22.7,22.7-22.7l0,0C262.6,75.8,272.8,85.9,272.8,98.5z"/>
		<path id="circle174" d="M272.8,325.8c0,12.5-10.2,22.7-22.7,22.7l0,0c-12.5,0-22.7-10.2-22.7-22.7l0,0c0-12.5,10.2-22.7,22.7-22.7
			l0,0C262.6,303.1,272.8,313.2,272.8,325.8L272.8,325.8z"/>
		<path id="circle176" d="M272.8,250c0,12.5-10.2,22.7-22.7,22.7c-12.5,0-22.7-10.2-22.7-22.7l0,0c0-12.5,10.2-22.7,22.7-22.7l0,0
			C262.6,227.3,272.8,237.5,272.8,250z"/>
		<path id="circle178" d="M272.8,174.2c0,12.5-10.2,22.7-22.7,22.7l0,0c-12.5,0-22.7-10.2-22.7-22.7l0,0c0-12.5,10.2-22.7,22.7-22.7
			l0,0C262.6,151.5,272.8,161.7,272.8,174.2L272.8,174.2z"/>
		<path id="circle180" d="M272.8,401.5c0,12.5-10.2,22.7-22.7,22.7l0,0c-12.5,0-22.7-10.2-22.7-22.7l0,0c0-12.5,10.2-22.7,22.7-22.7
			l0,0C262.6,378.9,272.8,389,272.8,401.5L272.8,401.5z"/>
		<path id="circle182" d="M348.6,477.3c0,12.5-10.2,22.7-22.7,22.7l0,0c-12.5,0-22.7-10.2-22.7-22.7l0,0c0-12.5,10.2-22.7,22.7-22.7
			l0,0C338.4,454.6,348.6,464.8,348.6,477.3L348.6,477.3z"/>
		<path id="circle184" d="M348.6,98.5c0,12.5-10.2,22.7-22.7,22.7l0,0c-12.5,0-22.7-10.2-22.7-22.7c0,0,0,0,0,0
			c0-12.5,10.2-22.7,22.7-22.7l0,0C338.4,75.8,348.6,85.9,348.6,98.5L348.6,98.5z"/>
		<path id="circle186" d="M348.6,325.8c0,12.5-10.2,22.7-22.7,22.7l0,0c-12.5,0-22.7-10.2-22.7-22.7l0,0c0-12.5,10.2-22.7,22.7-22.7
			l0,0C338.4,303.1,348.6,313.2,348.6,325.8L348.6,325.8z"/>
		<path id="circle188" d="M348.6,250c0,12.5-10.2,22.7-22.7,22.7l0,0c-12.5,0-22.7-10.2-22.7-22.7l0,0c0-12.5,10.2-22.7,22.7-22.7
			l0,0C338.4,227.3,348.6,237.5,348.6,250L348.6,250z"/>
		<path id="circle190" d="M348.6,174.2c0,12.5-10.2,22.7-22.7,22.7l0,0c-12.5,0-22.7-10.2-22.7-22.7l0,0c0-12.5,10.2-22.7,22.7-22.7
			l0,0C338.4,151.5,348.6,161.7,348.6,174.2L348.6,174.2z"/>
		<path id="circle192" d="M348.6,401.5c0,12.5-10.2,22.7-22.7,22.7l0,0c-12.5,0-22.7-10.2-22.7-22.7l0,0c0-12.5,10.2-22.7,22.7-22.7
			l0,0C338.4,378.9,348.6,389,348.6,401.5L348.6,401.5z"/>
		<path id="circle194" d="M424.3,477.3c0,12.5-10.2,22.7-22.7,22.7l0,0c-12.5,0-22.7-10.2-22.7-22.7l0,0c0-12.5,10.2-22.7,22.7-22.7
			l0,0C414.2,454.6,424.3,464.8,424.3,477.3L424.3,477.3z"/>
		<path id="circle196" d="M424.3,98.5c0,12.5-10.2,22.7-22.7,22.7l0,0c-12.5,0-22.7-10.2-22.7-22.7c0,0,0,0,0,0
			c0-12.5,10.2-22.7,22.7-22.7l0,0C414.2,75.8,424.3,85.9,424.3,98.5L424.3,98.5z"/>
		<path id="circle198" d="M424.3,325.8c0,12.5-10.2,22.7-22.7,22.7l0,0c-12.5,0-22.7-10.2-22.7-22.7l0,0c0-12.5,10.2-22.7,22.7-22.7
			l0,0C414.2,303.1,424.3,313.2,424.3,325.8L424.3,325.8z"/>
		<path id="circle200" d="M424.3,250c0,12.5-10.2,22.7-22.7,22.7l0,0c-12.5,0-22.7-10.2-22.7-22.7l0,0c0-12.5,10.2-22.7,22.7-22.7
			l0,0C414.2,227.3,424.3,237.5,424.3,250L424.3,250z"/>
		<path id="circle202" d="M424.3,174.2c0,12.5-10.2,22.7-22.7,22.7l0,0c-12.5,0-22.7-10.2-22.7-22.7l0,0c0-12.5,10.2-22.7,22.7-22.7
			l0,0C414.2,151.5,424.3,161.7,424.3,174.2L424.3,174.2z"/>
		<path id="circle204" d="M424.3,401.5c0,12.5-10.2,22.7-22.7,22.7l0,0c-12.5,0-22.7-10.2-22.7-22.7l0,0c0-12.5,10.2-22.7,22.7-22.7
			l0,0C414.2,378.9,424.3,389,424.3,401.5L424.3,401.5z"/>
		<path id="circle206" d="M500.1,477.3c0,12.5-10.2,22.7-22.7,22.7l0,0c-12.5,0-22.7-10.2-22.7-22.7l0,0c0-12.5,10.2-22.7,22.7-22.7
			l0,0C490,454.6,500.1,464.8,500.1,477.3L500.1,477.3z"/>
		<path id="circle208" d="M500.1,98.5c0,12.5-10.2,22.7-22.7,22.7l0,0c-12.5,0-22.7-10.2-22.7-22.7c0,0,0,0,0,0
			c0-12.5,10.2-22.7,22.7-22.7l0,0C490,75.8,500.1,85.9,500.1,98.5L500.1,98.5z"/>
		<path id="circle210" d="M500.1,325.8c0,12.5-10.2,22.7-22.7,22.7l0,0c-12.5,0-22.7-10.2-22.7-22.7l0,0c0-12.5,10.2-22.7,22.7-22.7
			l0,0C490,303.1,500.1,313.2,500.1,325.8L500.1,325.8z"/>
		<path id="circle212" d="M500.1,250c0,12.5-10.2,22.7-22.7,22.7l0,0c-12.5,0-22.7-10.2-22.7-22.7l0,0c0-12.5,10.2-22.7,22.7-22.7
			l0,0C490,227.3,500.1,237.5,500.1,250L500.1,250z"/>
		<path id="circle214" d="M500.1,174.2c0,12.5-10.2,22.7-22.7,22.7l0,0c-12.5,0-22.7-10.2-22.7-22.7l0,0c0-12.5,10.2-22.7,22.7-22.7
			l0,0C490,151.5,500.1,161.7,500.1,174.2L500.1,174.2z"/>
		<path id="circle216" d="M500.1,401.5c0,12.5-10.2,22.7-22.7,22.7l0,0c-12.5,0-22.7-10.2-22.7-22.7l0,0c0-12.5,10.2-22.7,22.7-22.7
			l0,0C490,378.9,500.1,389,500.1,401.5L500.1,401.5z"/>
	</g>
</g>
</svg>
