<?xml version="1.0" encoding="utf-8"?>
<!-- Generator: Adobe Illustrator 25.1.0, SVG Export Plug-In . SVG Version: 6.00 Build 0)  -->
<svg version="1.1"
	 id="svg423" sodipodi:docname="s9.svg" xmlns:inkscape="http://www.inkscape.org/namespaces/inkscape" xmlns:sodipodi="http://sodipodi.sourceforge.net/DTD/sodipodi-0.dtd" xmlns:svg="http://www.w3.org/2000/svg"
	 xmlns="http://www.w3.org/2000/svg" xmlns:xlink="http://www.w3.org/1999/xlink" x="0px" y="0px" viewBox="0 0 500 500"
	 style="enable-background:new 0 0 500 500;" xml:space="preserve">
<g id="Layer_10">
	<g id="g420">
		<g id="g380">
			<g id="g346">
				<path id="polygon344" d="M29,0v500H14.8l-0.8,0.8V0H29z"/>
			</g>
			<g id="g350">
				<path id="rect348" d="M71.3,0h15v500h-15V0z"/>
			</g>
			<g id="g354">
				<path id="rect352" d="M128.6,0h15v500h-15V0z"/>
			</g>
			<g id="g358">
				<path id="rect356" d="M185.9,0h15v500h-15V0z"/>
			</g>
			<g id="g362">
				<path id="rect360" d="M243.2,0h15v500h-15V0z"/>
			</g>
			<g id="g366">
				<path id="rect364" d="M300.6,0h15v500h-15V0z"/>
			</g>
			<g id="g370">
				<path id="rect368" d="M357.9,0h15v500h-15V0z"/>
			</g>
			<g id="g374">
				<path id="rect372" d="M415.2,0h15v500h-15V0z"/>
			</g>
			<g id="g378">
				<path id="rect376" d="M472.5,0h15v500h-15V0z"/>
			</g>
		</g>
		<g id="g418">
			<g id="g384">
				<path id="polygon382" d="M211.8,0L0,211.8v-21.2l14-14L190.6,0H211.8z"/>
			</g>
			<g id="g388">
				<path id="polygon386" d="M271.6,0h21.2L143.6,149.2l-15,15L0,292.8v-21.2L271.6,0z"/>
			</g>
			<g id="g392">
				<path id="polygon390" d="M0,373.9v-21.2L352.7,0h21.2l-1,1L71.3,302.6L29,344.9l-15,15L0,373.9z"/>
			</g>
			<g id="g396">
				<path id="polygon394" d="M14,441L0,455v-21.2L433.7,0h21.2L243.2,211.7L200.9,254l-72.3,72.3l-42.3,42.3L14,441z"/>
			</g>
			<g id="g400">
				<path id="polygon398" d="M500,14.8V36L36,500H14.8L29,485.8L500,14.8z"/>
			</g>
			<g id="g404">
				<path id="polygon402" d="M500,95.8v21.2L117.1,500H95.8l32.8-32.8L500,95.8z"/>
			</g>
			<g id="g408">
				<path id="polygon406" d="M315.6,361.3l42.3-42.3L500,176.9v21.2L198.1,500h-21.2l9-9L315.6,361.3z"/>
			</g>
			<g id="g412">
				<path id="polygon410" d="M500,279.2L279.2,500h-21.2L500,257.9V279.2z"/>
			</g>
			<g id="g416">
				<path id="polygon414" d="M500,360.2L360.2,500H339l161-161V360.2z"/>
			</g>
		</g>
	</g>
</g>
</svg>
